<mxfile host="Electron" modified="2024-03-23T11:43:28.481Z" agent="Mozilla/5.0 (Macintosh; Intel Mac OS X 10_15_7) AppleWebKit/537.36 (KHTML, like Gecko) draw.io/24.0.4 Chrome/120.0.6099.109 Electron/28.1.0 Safari/537.36" etag="lVQsPw-HLFV_lBRwFA9o" version="24.0.4" type="device">
  <diagram name="Page-1" id="vX6hdficz5q1-BIJ9oC6">
    <mxGraphModel dx="539" dy="329" grid="1" gridSize="10" guides="1" tooltips="1" connect="1" arrows="1" fold="1" page="1" pageScale="1" pageWidth="827" pageHeight="1169" math="0" shadow="0">
      <root>
        <mxCell id="0" />
        <mxCell id="1" parent="0" />
        <mxCell id="aaOb1FsgcFzphgtuqNvf-4" style="edgeStyle=orthogonalEdgeStyle;rounded=0;orthogonalLoop=1;jettySize=auto;html=1;endArrow=block;endFill=0;entryX=0.5;entryY=1;entryDx=0;entryDy=0;" edge="1" parent="1" source="aaOb1FsgcFzphgtuqNvf-2" target="aaOb1FsgcFzphgtuqNvf-12">
          <mxGeometry relative="1" as="geometry" />
        </mxCell>
        <mxCell id="aaOb1FsgcFzphgtuqNvf-5" style="edgeStyle=orthogonalEdgeStyle;rounded=0;orthogonalLoop=1;jettySize=auto;html=1;entryX=0.5;entryY=1;entryDx=0;entryDy=0;endArrow=block;endFill=0;" edge="1" parent="1" source="aaOb1FsgcFzphgtuqNvf-3" target="aaOb1FsgcFzphgtuqNvf-12">
          <mxGeometry relative="1" as="geometry" />
        </mxCell>
        <mxCell id="aaOb1FsgcFzphgtuqNvf-13" value="" style="group" vertex="1" connectable="0" parent="1">
          <mxGeometry x="240" y="240" width="120" height="50" as="geometry" />
        </mxCell>
        <mxCell id="aaOb1FsgcFzphgtuqNvf-2" value="Integer" style="rounded=0;whiteSpace=wrap;html=1;" vertex="1" parent="aaOb1FsgcFzphgtuqNvf-13">
          <mxGeometry width="120" height="30" as="geometry" />
        </mxCell>
        <mxCell id="aaOb1FsgcFzphgtuqNvf-6" value="" style="rounded=0;whiteSpace=wrap;html=1;" vertex="1" parent="aaOb1FsgcFzphgtuqNvf-13">
          <mxGeometry y="30" width="120" height="10" as="geometry" />
        </mxCell>
        <mxCell id="aaOb1FsgcFzphgtuqNvf-7" value="" style="rounded=0;whiteSpace=wrap;html=1;" vertex="1" parent="aaOb1FsgcFzphgtuqNvf-13">
          <mxGeometry y="40" width="120" height="10" as="geometry" />
        </mxCell>
        <mxCell id="aaOb1FsgcFzphgtuqNvf-14" value="" style="group" vertex="1" connectable="0" parent="1">
          <mxGeometry x="400" y="240" width="120" height="50" as="geometry" />
        </mxCell>
        <mxCell id="aaOb1FsgcFzphgtuqNvf-3" value="Double" style="rounded=0;whiteSpace=wrap;html=1;" vertex="1" parent="aaOb1FsgcFzphgtuqNvf-14">
          <mxGeometry width="120" height="30" as="geometry" />
        </mxCell>
        <mxCell id="aaOb1FsgcFzphgtuqNvf-9" value="" style="rounded=0;whiteSpace=wrap;html=1;" vertex="1" parent="aaOb1FsgcFzphgtuqNvf-14">
          <mxGeometry y="30" width="120" height="10" as="geometry" />
        </mxCell>
        <mxCell id="aaOb1FsgcFzphgtuqNvf-10" value="" style="rounded=0;whiteSpace=wrap;html=1;" vertex="1" parent="aaOb1FsgcFzphgtuqNvf-14">
          <mxGeometry y="40" width="120" height="10" as="geometry" />
        </mxCell>
        <mxCell id="aaOb1FsgcFzphgtuqNvf-15" value="" style="group" vertex="1" connectable="0" parent="1">
          <mxGeometry x="320" y="130" width="120" height="50" as="geometry" />
        </mxCell>
        <mxCell id="aaOb1FsgcFzphgtuqNvf-1" value="Number" style="rounded=0;whiteSpace=wrap;html=1;" vertex="1" parent="aaOb1FsgcFzphgtuqNvf-15">
          <mxGeometry width="120" height="30" as="geometry" />
        </mxCell>
        <mxCell id="aaOb1FsgcFzphgtuqNvf-11" value="" style="rounded=0;whiteSpace=wrap;html=1;" vertex="1" parent="aaOb1FsgcFzphgtuqNvf-15">
          <mxGeometry y="30" width="120" height="10" as="geometry" />
        </mxCell>
        <mxCell id="aaOb1FsgcFzphgtuqNvf-12" value="" style="rounded=0;whiteSpace=wrap;html=1;" vertex="1" parent="aaOb1FsgcFzphgtuqNvf-15">
          <mxGeometry y="40" width="120" height="10" as="geometry" />
        </mxCell>
      </root>
    </mxGraphModel>
  </diagram>
</mxfile>
